<?xml version="1.0" encoding="utf-8"?>
<!-- Generator: Adobe Illustrator 24.1.0, SVG Export Plug-In . SVG Version: 6.00 Build 0)  -->
<svg version="1.1" id="Layer_1" xmlns="http://www.w3.org/2000/svg" xmlns:xlink="http://www.w3.org/1999/xlink" x="0px" y="0px"
	 viewBox="0 0 436.2 65.9" style="enable-background:new 0 0 436.2 65.9;" xml:space="preserve">
<style type="text/css">
	.st0{fill-rule:evenodd;clip-rule:evenodd;stroke:#272525;stroke-width:2.1611;stroke-linecap:square;stroke-miterlimit:10;}
	.st1{fill-rule:evenodd;clip-rule:evenodd;fill:#FFFFFF;}
	
		.st2{fill-rule:evenodd;clip-rule:evenodd;fill:#918780;stroke:#272525;stroke-width:3.8969;stroke-linejoin:round;stroke-miterlimit:10;}
	.st3{fill:#88633D;}
	.st4{fill-rule:evenodd;clip-rule:evenodd;fill:#DFD5CB;}
	.st5{fill:#918780;stroke:#918780;stroke-width:1.1153;}
	.st6{fill:#87633D;stroke:#272525;stroke-width:1.8987;}
	.st7{fill:#F4F4F4;}
	.st8{fill:#FFFFFF;}
	.st9{fill:#272525;}
	.st10{fill:#2963A3;}
	.st11{fill-rule:evenodd;clip-rule:evenodd;fill:#272525;}
	.st12{fill:#C92230;}
</style>
<g>
	<g>
		<path class="st0" d="M324.3,22.8l-0.6-0.5l-0.5-0.4l-0.5-0.3l-0.4-0.2l-0.4-0.2l-0.4-0.1l-0.4-0.1h-0.3l-0.3,0.1l-0.3,0.1
			l-0.3,0.2l-0.3,0.2l-0.3,0.2l-0.3,0.3l-0.4,0.3l-0.4,0.3l-0.4,0.3l-0.4,0.3l-0.5,0.3l-0.5,0.3l-0.3,0.2l-0.1,0.2v0.2l0.1,0.3
			l0.2,0.4l0.6,1l0.7,1l0.3,0.5v0.2l-0.3-0.1l-0.5-0.6l-0.8-1.1l-0.8-1l-1.8-0.9l-0.3-0.1l-0.2-0.1H313l-0.2,0.1l-0.2,0.2l-0.2,0.3
			l-0.3,0.4l-2.1,2.9l-0.3,0.5l-0.1,0.4l0.1,0.4l0.5,1.9l0.1,0.4l0.2,0.4l0.3,0.4l0.3,0.4l0.3,0.3l0.3,0.2l0.4,0.3l0.1,0.3l-0.1,0.3
			l-0.4,0.3l-0.4,0.3l-0.3,0.4l-0.2,0.5l-0.1,0.5l-0.1,0.2l-0.1-0.2l-0.2-0.5l-0.1-0.4L310,35l-0.3-0.3l-0.3-0.2l-0.4-0.2l-0.5-0.2
			l-0.2-0.2l0.1-0.2l0.3-0.2l0.4-0.3l0.2-0.5v-0.4v-0.4l-0.1-0.3l-0.1-0.3l-0.2-0.3l-0.2-0.3l-0.2-0.3l-0.2-0.3l-0.2-0.3l-0.3-0.5
			l-0.1-0.2l0.2-0.2l0.3-0.1l0.2-0.1l0.3-0.1l0.3-0.2l0.3-0.3l0.3-0.3l0.3-0.4l0.2-0.4l0.2-0.4l0.2-0.5l0.2-0.5l0.1-0.5l0.1-0.5
			v-0.5l-0.1-0.4l-0.1-0.4l-0.2-0.4l-0.3-0.3l-0.4-0.3l-0.5-0.2l-0.6-0.2l-0.5-0.2l-0.2-0.2l0.2-0.2l0.5-0.1h0.4l0.2-0.2l0.2-0.4
			l0.1-0.4l0.1-0.4l0.1-0.4l0.1-0.4l0.1-0.5V18v-0.5V17v-0.5l-0.1-0.5l-0.1-0.5l-0.1-0.4l-0.2-0.4l-0.2-0.4l-0.2-0.4l-0.3-0.4
			l-0.3-0.3l-0.3-0.3l-0.4-0.2l-0.4-0.2l-0.4-0.1l-0.4-0.1h-0.4h-0.4l-0.4,0.1l-0.4,0.1l-0.4,0.2l-0.4,0.2l-0.4,0.2l-0.4,0.3
			l-0.3,0.3l-0.3,0.3l-0.3,0.4l-0.2,0.4l-0.2,0.4l-0.2,0.4l-0.1,0.4l-0.1,0.5V17v0.5l0.4,3.5l0.1,0.3l0.1,0.2l0.2,0.1h0.4l4.1-0.4
			h0.2l0.1,0.2v0.2l-0.2,0.1l-4.4,0.6l-0.3,0.1l-0.3,0.1l-0.2,0.1l-0.2,0.2l-0.2,0.2l-0.2,0.2l-0.1,0.2l-0.1,0.2l-0.1,0.3v0.3v0.3
			v0.3l-0.1,0.1h-0.2l-0.3-0.2l-0.2-0.1l-0.2-0.1l-0.2-0.1h-0.2h-0.2h-0.2l-0.2,0.1l-0.2,0.1l-0.2,0.1l-0.2,0.1l-0.2,0.1L298,25
			l-0.2,0.2l-0.2,0.2l-0.2,0.2l-0.2,0.2L297,26l-0.1,0.2l-0.1,0.2l-0.1,0.2l-0.4,0.6l-0.2,0.2l-0.1-0.2l0.1-0.4l0.1-0.5l0.1-0.4
			v-0.4l-0.2-0.3l-2.1-2.5l-0.2-0.3l-0.2-0.2l-0.2-0.1l-0.2-0.1h-0.3l-0.3,0.1l-0.4,0.1l-2.5,0.7l-0.4,0.1l-0.2,0.2l-0.1,0.3
			l-0.1,0.4l-0.4,3.1v0.3v0.3v0.2l0.1,0.2l0.1,0.2l0.1,0.2l0.1,0.1l0.2,0.1l0.2,0.1l0.2,0.1l0.2,0.1l0.2,0.1l0.2,0.1l0.2,0.1
			l0.2,0.1l0.2,0.1l0.2,0.1l0.2,0.1l0.3,0.2l0.3,0.2l0.3,0.3l0.3,0.3l0.3,0.3l0.3,0.3l0.3,0.3l0.4,0.2l0.4,0.1h0.4h0.4v0.3v0.6
			l0.1,0.5l0.2,0.5l0.3,0.4l0.4,0.3l0.4,0.3l0.5,0.2l0.6,0.1l0.6,0.1h0.6h0.6l0.6-0.1l0.6-0.1l0.6-0.2l0.6-0.2l0.5-0.2l0.5-0.3
			l0.4-0.3l0.3-0.4l0.2-0.4l0.2-0.3l0.2-0.1l0.2,0.2l0.2,0.5l0.2,0.4l0.3,0.3l0.4,0.3l0.3,0.3l0.1,0.2l-0.2,0.1l-0.6,0.3l-0.3,0.2
			l-0.3,0.2l-0.3,0.3l-0.2,0.3l-0.2,0.3l-0.2,0.4l-0.1,0.4l-0.1,0.4l-0.1,0.4v0.4v0.4v0.4v0.4v0.3l0.1,0.3l0.1,0.3l0.1,0.2l0.1,0.2
			l0.1,0.1l0.1,0.1l0.3,0.1l0.1,0.2l-0.1,0.2l-0.3,0.4l-0.1,0.2l-0.1,0.2l-0.1,0.2v0.3v0.3v0.3l0.1,0.3l0.1,0.3l0.1,0.3l0.1,0.3
			l0.1,0.3l0.2,0.2l0.2,0.2l0.2,0.2l0.2,0.2l0.2,0.2l0.2,0.2l0.2,0.2l0.2,0.2l0.2,0.1l0.3,0.3l0.1,0.2l-0.1,0.2l-0.3,0.2l-0.3,0.2
			l-0.3,0.2l-0.3,0.3l-0.3,0.3l-0.3,0.3l-0.2,0.4l-0.2,0.4l-0.2,0.4l-0.2,0.4l-0.2,0.4l-0.2,0.5l-0.1,0.5l-0.1,0.5l-0.1,0.5
			l-0.1,0.4v0.4v0.4v0.4v0.4l0.1,0.3l0.1,0.3l0.2,0.3l0.3,0.2l0.3,0.2l0.4,0.1l0.4,0.1l0.5,0.1h0.5h0.5h0.5l0.5-0.1l0.5-0.1L307,55
			l0.5-0.1l0.5-0.1l0.5-0.1l0.4-0.1l0.4-0.1l0.3-0.1l0.3-0.1l0.3-0.2l0.2-0.3l0.2-0.4l0.1-0.4v-0.5v-0.4l-0.1-0.4l-0.1-0.3l0.1-0.2
			l0.2,0.1l0.3,0.5l0.2,0.3l0.2,0.2l0.2,0.2l0.2,0.1l0.2,0.1l0.2,0.1h0.2h0.2h0.2l0.3-0.1l0.2-0.1l0.2-0.1l0.3-0.1l0.2-0.2l0.2-0.2
			l0.2-0.2l0.2-0.2l0.2-0.2l0.2-0.2l0.2-0.2l0.4-0.4l0.3-0.4l0.3-0.4l0.3-0.4l0.3-0.4l0.2-0.4l0.2-0.4l0.2-0.4l0.1-0.4l0.1-0.4
			l0.1-0.4v-0.4v-0.4l-0.1-0.4l-0.1-0.4l-0.2-0.4l-0.2-0.4l-0.3-0.4l-0.3-0.4l-0.4-0.4l-0.3-0.3l-0.1-0.2h0.2l0.3,0.1l0.6,0.2h0.5
			l0.4-0.1l0.4-0.2l0.3-0.3l0.3-0.4l0.2-0.5l0.2-0.6l0.1-0.6l0.1-0.7v-0.7V38v-0.7l-0.1-0.7l-0.1-0.7l-0.1-0.6l-0.1-0.5l-0.2-0.5
			l-0.2-0.4l-0.2-0.3l-0.5-0.2l-0.5-0.1l-0.5,0.1h-0.5l-0.2-0.2l0.1-0.3l0.6-0.3l0.4-0.2l0.4-0.2l0.4-0.3l0.3-0.4l0.2-0.6v-0.7v-0.4
			l0.2-0.2l0.4-0.1l0.4-0.1l0.4-0.2l0.7-0.6l0.6-0.7l0.7-0.6l0.3-0.2l0.2-0.2l0.2-0.2l0.2-0.2l0.2-0.1l0.2-0.1l0.2-0.1l0.1-0.1
			l0.1-0.1l0.1-0.2l0.1-0.2l0.1-0.2l0.1-0.2l0.1-0.2l0.1-0.2v-0.2v-0.3V24v-0.3v-0.3L324.3,22.8L324.3,22.8 M303.9,29.7l-0.3,0.1
			l-0.4-0.2l-0.2-0.3l0.1-0.3l0.3-0.1l0.3,0.2l0.2,0.3V29.7 M309.6,49h-0.4l-0.2-0.2l-0.3-0.6l-0.3-0.4l-0.3-0.4l-0.4-0.3l-0.4-0.3
			l-0.2-0.3l0.2-0.2l0.7-0.5l0.5-0.4l0.5-0.3l0.2,0.2l-0.1,0.4l-0.2,0.5l-0.1,0.4l0.1,0.7l0.3,0.6l0.3,0.6l0.1,0.2l0.1,0.2l0.1,0.1
			v0.1L309.6,49 M313.9,41.6l-0.5-0.1l-0.5-0.1h-0.6l-0.5,0.1l-0.5,0.4l-0.3,0.5l-0.2,0.3l-0.2,0.2l-0.3,0.1l-0.1-0.2l-0.1-0.5
			l-0.1-0.4l-0.2-0.4l-0.3-0.3l-0.3-0.3l-0.1-0.2v-0.2l0.1-0.2l0.2-0.2l0.2-0.2l0.2-0.2l0.2-0.2l0.2-0.3l0.3-0.5l0.2-0.2l0.2,0.2
			l0.3,0.5l0.3,0.5l0.5,0.4l0.9,0.5l0.8,0.6l0.2,0.2L313.9,41.6L313.9,41.6z"/>
		<polygon class="st0" points="307.5,60.3 307.7,59.9 307.9,59.5 308,59.1 308.1,58.6 308.2,58.2 308.3,57.7 308.3,57.3 308.3,56.8 
			308.2,56.4 307.9,56 307.7,55.9 307.4,55.8 307.2,55.7 306.9,55.6 306.6,55.6 306.3,55.6 306,55.6 305.7,55.7 305.4,55.8 
			305.2,55.9 304.9,56.1 304.8,56.2 304.6,56.5 304.5,56.7 304.3,57 304.3,57.3 304.2,57.6 304.1,57.9 304.1,58.3 304.1,58.6 
			304.1,59 304.2,59.3 304.3,59.6 304.3,60 304.4,60.3 304.6,60.6 304.7,60.9 304.9,61.1 305,61.3 305.2,61.5 305.4,61.6 
			305.7,61.7 306,61.8 306.3,61.7 306.5,61.6 306.8,61.5 307,61.2 307.2,61 307.3,60.7 		"/>
		<polygon class="st0" points="300.9,35.3 300.6,35 300.3,34.7 300,34.4 299.7,34.4 299.2,34.4 294.8,34.7 294.5,34.7 294.2,34.8 
			293.9,34.8 293.8,34.9 293.6,35 293.5,35.2 293.4,35.4 293.3,35.7 293.3,36 292.8,38.2 292.8,38.5 292.7,38.8 292.7,39 
			292.6,39.3 292.6,39.6 292.6,40 292.6,40.3 292.5,40.6 292.6,40.9 292.6,41.2 292.6,41.5 292.7,41.8 292.8,42 292.9,42.3 
			293,42.5 293.2,42.7 293.4,42.9 293.6,43 293.9,43.2 294.2,43.2 294.6,43.3 295.1,43.3 295.8,43 296.1,42.9 296.3,43 296.1,43.3 
			295.7,43.7 295.4,43.8 295.2,44 295,44.2 294.8,44.4 294.6,44.6 294.5,44.8 294.3,45.1 294.3,45.3 294.2,45.6 294.2,45.8 
			294.1,46.1 294.2,46.4 294.1,46.8 294,47 293.6,47.1 293.1,47.2 292.8,47.4 292.5,47.6 292.3,47.8 292.1,48.1 292,48.4 
			291.8,48.7 291.6,49 291.5,49.3 291.2,49.6 290.9,49.9 290.7,50.2 290.4,50.4 290.1,50.6 289.9,50.8 289.7,51 289.5,51.2 
			289.3,51.4 289.1,51.6 289,51.8 288.9,51.9 288.7,52.1 288.6,52.4 288.5,52.6 288.5,52.9 288.4,53.2 288.4,53.5 288.4,53.8 
			288.4,54.2 288.4,54.7 288.6,55.2 289,55.6 289.6,56.1 290.2,56.6 290.7,56.9 291.2,57.2 291.6,57.3 291.9,57.4 292.2,57.4 
			292.5,57.3 292.7,57.2 292.9,57 293.1,56.8 293.4,56.6 293.6,56.3 293.8,56 294,55.7 294.3,55.4 294.6,55.1 294.9,54.8 
			295.3,54.6 295.8,54.3 296.1,54.1 296.2,53.7 296.3,53 296.3,52.4 296.2,51.8 296,51.2 295.9,50.7 296,50.5 296.2,50.6 
			296.7,51.2 297.1,51.6 297.4,52 297.9,52.2 298.3,52.2 298.7,52.2 299,52 299.4,51.8 299.7,51.6 300.1,51.3 300.4,51 300.7,50.6 
			301,50.2 301.3,49.8 301.6,49.3 301.8,48.9 302.1,48.4 302.3,47.9 302.4,47.5 302.6,47 302.7,46.6 302.8,46.2 302.9,45.8 
			302.9,45.5 303,45.2 302.9,44.9 302.9,44.6 302.8,44.3 302.7,44 302.5,43.7 302.4,43.4 302.2,43.2 302,42.9 301.7,42.7 
			301.5,42.5 301.2,42.3 301,42.1 300.7,42 300.4,41.9 300.1,41.8 299.8,41.8 299.5,41.8 299.2,41.9 298.9,42 298.4,42.2 298,42.2 
			297.8,42.1 297.9,41.9 298.3,41.7 298.5,41.6 298.7,41.6 298.9,41.5 299.1,41.3 299.3,41.2 299.5,41.1 299.7,40.9 299.8,40.8 
			300,40.6 300.2,40.4 300.3,40.2 300.4,40 300.6,39.8 300.7,39.6 300.8,39.4 300.8,39.1 300.9,38.9 300.9,38.7 301,38.5 301,38.2 
			301,35.8 		"/>
		<polygon class="st0" points="315.6,51.8 315.4,52.1 315.3,52.3 315.2,52.6 315.2,52.8 315.2,53 315.2,53.2 315.3,53.4 315.4,53.6 
			315.6,53.8 315.8,53.9 316,54.1 316.2,54.2 316.4,54.4 316.6,54.5 316.8,54.7 317.1,54.8 317.3,55 317.5,55.1 317.6,55.3 
			317.8,55.4 318.2,55.9 318.7,56.2 319.1,56.5 319.6,56.8 320.1,56.9 320.6,57 321.1,57.1 321.6,57 322.1,57 322.6,56.8 323,56.7 
			323.4,56.4 323.8,56.1 324.1,55.8 324.4,55.5 324.6,55 324.7,54.6 324.8,54.1 324.8,53.6 324.7,53.1 324.6,52.6 324.4,52.2 
			324.2,51.9 323.9,51.7 323.5,51.4 323.2,51.2 322.8,51 322.5,50.7 322.2,50.5 321.9,50.1 321.6,49.8 321.4,49.4 321.2,49.1 
			321,48.8 320.7,48.4 320.4,48.1 320.1,47.9 319.7,47.7 319.3,47.6 319.1,47.7 318.9,47.9 		"/>
		<polygon class="st1" points="306.3,60.1 306.1,60.1 305.8,60.1 305.7,59.9 305.3,57.8 305.3,57.5 305.3,57.3 305.5,57.1 305.7,57 
			306.2,56.9 306.6,56.9 306.9,56.9 307.1,57.2 307.1,57.5 306.4,59.9 		"/>
		<polygon class="st1" points="294.9,51.5 295.1,51.9 295.2,52.2 295.2,52.5 295.1,52.7 294.9,53 294.7,53.3 293.1,55.3 292.8,55.7 
			292.5,55.8 292,56 291.7,56 291.4,55.9 291.1,55.8 290.8,55.6 290.5,55.4 290.2,55.2 290,54.9 289.8,54.6 289.7,54.3 289.6,54.1 
			289.6,53.7 289.6,53.5 289.6,53.2 289.7,52.9 289.9,52.7 290,52.4 290.2,52.2 290.4,52 290.6,51.8 290.9,51.6 291.1,51.4 
			291.4,51.1 291.6,50.9 291.8,50.7 292.1,50.5 292.3,50.3 292.4,50 292.6,49.8 292.7,49.5 292.8,49.3 293,48.8 293.3,48.6 
			293.5,48.7 293.7,49 		"/>
		<polygon class="st1" points="317.1,53.3 316.8,53 316.7,52.8 316.6,52.7 316.6,52.5 316.7,52.3 316.9,52.1 319,49.7 319.4,49.3 
			319.6,49.2 319.8,49.3 320.1,49.6 320.4,50.2 320.7,50.8 321.1,51.3 321.3,51.4 321.6,51.6 321.8,51.7 322,51.8 322.3,52 
			322.5,52.1 322.7,52.3 322.9,52.4 323.1,52.6 323.3,52.8 323.4,53 323.5,53.2 323.5,53.4 323.5,53.7 323.5,54 323.4,54.2 
			323.3,54.3 323.2,54.5 323.1,54.7 323,54.9 322.8,55 322.6,55.2 322.5,55.3 322.3,55.5 322.1,55.6 321.9,55.7 321.7,55.8 
			321.5,55.9 321.3,55.9 321,56 320.8,56 320.6,56 320.4,55.9 320.2,55.8 320,55.7 317.5,53.6 		"/>
		<polygon class="st1" points="303.6,54 303.2,54.1 303,54 302.9,53.8 302.8,53.4 302.8,53.1 302.7,52.8 302.8,52.6 302.8,52.3 
			302.8,52 302.9,51.7 302.9,51.5 303,51.2 303.1,51 303.2,50.7 303.3,50.4 303.4,50.2 303.6,50 303.7,49.7 303.8,49.5 304,49.2 
			304.1,49 304.3,48.8 304.5,48.6 304.7,48.3 304.9,48 305.2,47.8 305.5,47.7 305.8,47.7 306,47.8 306.3,47.9 306.6,48 306.9,48.2 
			307.2,48.4 307.5,48.6 307.7,48.9 308,49.2 308.2,49.4 308.5,49.7 308.7,50 308.9,50.4 309.1,50.7 309.2,51 309.3,51.3 
			309.4,51.6 309.5,51.9 309.5,52.2 309.4,52.4 309.3,52.7 309.2,52.9 308.6,53.3 308.1,53.6 		"/>
		<polygon class="st1" points="313.4,51.2 313.2,51.3 312.8,51.2 312.7,51.2 312.3,51.1 312,50.7 310.1,47.1 310.1,46.9 310,46.7 
			310.1,46.4 310.1,46.2 310.2,45.9 310.3,45.6 310.4,45.3 310.6,45 310.7,44.7 310.9,44.4 311.1,44.1 311.4,43.8 311.6,43.5 
			311.8,43.3 312,43.1 312.3,42.9 312.5,42.7 312.7,42.6 312.9,42.6 313.1,42.6 313.5,42.6 313.9,42.7 314.3,42.8 314.7,43 
			315.1,43.3 315.4,43.6 315.7,43.9 316,44.2 316.2,44.6 316.4,45 316.6,45.4 316.7,45.8 316.7,46.3 316.7,46.7 316.7,47.1 
			316.6,47.6 316.4,48 316.2,48.5 315.9,48.9 315.5,49.3 313.8,50.9 		"/>
		<polygon class="st1" points="299.1,50.6 298.8,50.9 298.4,51 298,50.9 297.8,50.7 295.9,48 295.7,47.6 295.5,47.3 295.4,46.9 
			295.4,46.5 295.4,46.2 295.5,45.9 295.7,45.6 295.8,45.3 296.1,45 296.3,44.8 296.6,44.5 296.9,44.3 297.2,44.1 297.5,43.8 
			297.9,43.7 298.2,43.5 298.6,43.3 298.9,43.2 299.3,43 299.6,42.9 299.9,42.8 300.1,42.9 300.4,43.1 300.5,43.3 300.7,43.4 
			300.8,43.6 300.9,43.8 301.1,44 301.2,44.1 301.3,44.3 301.4,44.6 301.4,44.8 301.5,45 301.6,45.2 301.6,45.4 301.6,45.6 
			301.6,45.8 301.6,46 301.6,46.3 301.5,46.5 301.5,46.7 301.4,46.9 301.3,47.1 		"/>
		<polygon class="st1" points="306,41.1 306.9,41.2 307.7,41.4 308.2,41.6 308.6,42 308.7,42.2 308.8,42.4 308.8,42.6 308.8,42.8 
			308.8,43 308.7,43.2 308.6,43.4 308.5,43.6 308.3,43.8 308.2,44 308,44.1 307.9,44.3 307.7,44.5 307.5,44.6 307.3,44.7 
			307.1,44.8 307,44.9 306.8,45 306.3,45.2 305.8,45.1 305.4,44.9 305,44.6 304.6,44.3 304.3,43.8 304.1,43.4 303.9,43 303.7,42.6 
			303.6,42.3 303.7,42 304,41.8 304.6,41.4 305.2,41.2 		"/>
		<polygon class="st1" points="298,35.5 298.6,35.6 299.2,35.8 299.5,35.8 299.7,36 299.7,36.4 299.7,36.7 299.7,37 299.7,37.3 
			299.7,37.6 299.6,37.8 299.6,38.1 299.5,38.4 299.5,38.6 299.4,38.9 299.3,39.1 299.2,39.3 299.1,39.5 299,39.7 298.8,39.9 
			298.6,40.1 298.4,40.3 298.2,40.5 297.9,40.6 297.7,40.8 297.4,41 296.7,41.3 296.1,41.6 295.5,41.8 294.8,42 294.4,42 294.2,42 
			294.1,41.8 294,41.5 293.9,41.1 293.8,40.3 293.9,39.5 294.4,37 294.4,36.7 294.5,36.4 294.6,36.2 294.8,36.1 295,36 295.3,35.9 
			295.8,35.8 		"/>
		<polygon class="st1" points="314.3,34.7 315,34.6 315.8,34.6 316.5,34.5 317.2,34.5 317.6,34.6 317.9,34.7 318,35.1 318.1,35.5 
			318.2,35.9 318.3,36.4 318.3,36.8 318.4,37.3 318.4,37.8 318.5,38.3 318.5,38.7 318.5,39.2 318.4,39.7 318.4,40.1 318.3,40.5 
			318.1,40.9 317.8,41.3 317.3,41.5 316.9,41.5 316.5,41.4 316,41.2 315.6,41 315.1,40.8 314.7,40.5 314.2,40.2 313.8,39.9 
			313.4,39.5 313,39.1 312.6,38.7 312.4,38.3 312.1,37.8 312,37.4 311.9,37 311.9,36.6 312,36.2 312.3,35.8 312.6,35.5 313.1,35.2 
			313.7,34.9 		"/>
		<polygon class="st1" points="304.3,39.2 303.8,39.2 303.5,39.2 303.4,38.9 303.4,38.6 303.4,36.7 303.5,36.3 303.6,36 303.8,35.7 
			304.1,35.5 304.5,35.3 304.9,35.1 305.4,35 305.9,35 306.4,35 306.9,35 307.4,35.1 307.8,35.2 308.3,35.4 308.6,35.7 309,36 
			309.2,36.3 309.4,36.7 309.5,37.2 309.5,37.7 309.4,38.2 309.2,38.8 309,39 308.7,39 		"/>
		<polygon class="st1" points="301.8,29.1 301.9,29.3 302,29.6 302,29.8 302,30.1 302,30.4 301.9,30.7 301.8,31 301.7,31.3 
			301.6,31.6 301.4,31.8 301.3,32 301.1,32.2 300.9,32.3 300.8,32.4 297,32.9 296.7,32.9 296.3,32.9 296.1,32.8 295.9,32.7 
			295.7,32.5 295.5,32.3 295.4,32 295.3,31.7 295.3,31.4 295.3,31.1 295.3,30.8 295.3,30.4 295.4,30.1 295.5,29.7 295.6,29.4 
			295.7,29.1 295.8,28.8 295.9,28.6 296.1,28.3 296.2,28.1 298.2,25.8 298.4,25.6 298.6,25.4 298.7,25.2 298.9,25.2 299,25.2 
			299.2,25.2 299.3,25.3 299.5,25.5 299.6,25.7 299.8,26 		"/>
		<polygon class="st1" points="307.9,32.5 307.7,32.6 307,32.7 306.4,32.7 305.9,32.6 305.5,32.5 305.1,32.3 304.9,32 304.7,31.7 
			304.6,31.5 304.6,31.2 304.6,30.9 304.7,30.6 304.9,30.4 305.1,30.2 305.4,30.1 305.7,30 306.1,30.1 306.5,30.2 306.9,30.5 
			307.4,30.8 307.9,31.4 308.2,31.7 308.4,32 308.4,32.1 308.3,32.3 308,32.5 		"/>
		<polygon class="st1" points="311.2,30.1 311,29.7 310.9,29.4 310.8,29.1 310.8,28.9 310.9,28.7 311,28.4 311.2,28.2 312.8,26.1 
			313.1,25.9 313.5,25.7 313.9,25.7 314.3,25.9 314.5,26.1 314.7,26.2 315,26.4 315.2,26.6 315.4,26.9 315.6,27.1 315.9,27.4 
			316.1,27.6 316.3,27.9 316.4,28.1 316.6,28.4 316.8,28.7 316.9,29 317.1,29.3 317.2,29.5 317.3,29.8 317.4,30.1 317.5,30.4 
			317.5,30.7 317.5,31 317.3,31.2 317.1,31.4 316.8,31.6 316.6,31.8 316.2,31.9 313.4,32.5 313,32.6 312.7,32.6 312.5,32.5 
			312.3,32.3 312.1,31.9 		"/>
		<polygon class="st1" points="289.6,23.8 289.7,23.4 289.8,23.3 290.1,23.2 292,22.8 292.3,22.7 292.6,22.9 292.9,23.2 294.4,25.1 
			294.6,25.5 294.5,25.9 293.7,28.5 293.6,28.9 293.5,29.1 293.3,29.2 293.2,29.2 292.9,29 292.6,28.7 292.1,28.2 291.6,27.7 
			291.2,27.4 290.7,27.3 290.4,27.3 290.1,27.2 289.9,27.1 289.6,27 289.5,26.8 289.4,26.6 289.3,26.3 289.3,26 		"/>
		<polygon class="st1" points="317.8,25 318.1,24.6 320.7,22.5 321,22.3 321.3,22.3 321.6,22.4 322.2,22.7 322.8,23.2 323.1,23.4 
			323.3,23.7 323.3,24.1 323.3,24.5 323.3,24.9 323.1,25.3 322.8,25.6 319.8,27.8 319.6,27.9 319.4,27.9 319.2,27.7 319,27.2 
			317.9,25.3 		"/>
		<polygon class="st1" points="305.2,27.7 304.9,27.7 304.7,27.8 304.5,27.8 304.3,27.9 304.2,28 304,28 303.9,27.9 303.8,27.8 
			303.6,27.7 303.4,27.4 303.2,27 301.9,24.4 301.8,24 301.7,23.8 301.8,23.6 302,23.5 302.4,23.3 302.6,23.2 302.9,23.2 
			303.3,23.1 303.6,23 304,22.9 304.5,22.9 304.9,22.8 305.3,22.8 305.8,22.8 306.2,22.7 306.7,22.8 307.1,22.8 307.5,22.8 
			307.9,22.9 308.3,23 308.6,23.2 308.9,23.3 309.1,23.5 309.4,23.8 309.5,24.1 309.6,24.4 309.6,24.7 309.6,25.1 309.5,25.4 
			309.3,25.7 309.2,26 309,26.3 308.8,26.6 308.6,26.9 308.4,27.2 308.2,27.6 307.7,27.7 		"/>
		<polygon class="st1" points="303.2,19.9 303,19.8 302.9,19.5 302.9,19 302.9,16.2 302.9,15.9 303,15.7 303.2,15.4 303.4,15.1 
			303.6,14.8 303.9,14.6 304.1,14.3 304.4,14.1 304.7,13.9 305,13.7 305.2,13.6 305.5,13.5 306,13.4 306.5,13.5 306.7,13.7 
			307,13.8 307.2,13.9 307.4,14.1 307.6,14.3 307.8,14.4 308,14.6 308.2,14.9 308.3,15.1 308.4,15.3 308.5,15.6 308.6,15.9 
			308.6,16.2 308.6,19.5 308.5,19.7 308.4,19.9 308.2,19.9 307.8,20 307.1,20 303.5,20 		"/>
	</g>
	<g>
		<path class="st2" d="M263,52.6v-37l0,0c0,0,0,0,0-0.1h-31.9c0,0,0,0,0,0.1l0,0v37l0,0l0,0v0.1h0.1c3.2,4.7,9.1,7.9,15.8,7.9
			c6.8,0,12.7-3.2,15.8-7.9L263,52.6L263,52.6C263,52.6,263,52.6,263,52.6L263,52.6z"/>
		<rect x="231.1" y="15.6" class="st3" width="31.8" height="37.1"/>
		<polygon class="st1" points="254.7,40.7 247,49.9 239.3,40.7 247,31.4 		"/>
		<path class="st4" d="M231.1,15.6c3.2,4.8,9.1,8.1,15.9,8.1s12.8-3.3,15.9-8.1H231.1z"/>
		<path class="st3" d="M231.1,52.6c3.2,4.8,9.1,8.1,15.9,8.1s12.8-3.3,15.9-8.1H231.1z"/>
	</g>
	<g>
		<polygon class="st5" points="402.3,51.8 344.2,51.8 354.4,21.3 412.5,21.3 		"/>
		<polygon class="st6" points="402.3,51.8 344.2,51.8 354.4,21.3 412.5,21.3 		"/>
		<g>
			<path class="st7" d="M368.1,38.8c-0.1,3.5-0.1,3.6-0.1,5.1c0,0.7,0,0.8-0.9,0.8h-2.2c-0.7,0-0.8-0.2-0.8-0.7c0-1.6,0.1-6,0.1-6.9
				c0-1.9,0-2.7,0.1-4c-0.4,0.3-1.8,1.3-2.1,1.3c-0.1,0-0.2-0.1-0.2-0.3c0-0.5,0-0.7,0-1.5c0-0.9,0-1,0.9-1.5
				c0.4-0.2,1.5-0.9,2.2-1.4c0.5-0.3,0.6-0.4,1.3-0.4c1.9,0,1.9,0,1.9,0.5s-0.1,2.6-0.1,3.1L368.1,38.8z"/>
			<path class="st7" d="M377,45.3c-3.2,0-5.4-3.7-5.4-8.1c0-4.7,2.5-8.1,5.9-8.1c1.3,0,2.9,0.2,4.2,2.7c0.8,1.6,1.1,3.4,1.1,5.2
				C382.8,42.5,380,45.3,377,45.3z M378.5,32.7c-0.3-0.4-0.6-0.5-1.1-0.5c-0.7,0-1.1,0.7-1.3,1.4c-0.3,1-0.4,3-0.4,3.9
				c0,1,0.1,2.2,0.3,2.9c0.3,1.4,0.8,1.6,1.5,1.6c0.5,0,1-0.2,1.4-1.3c0.4-1,0.5-2.7,0.5-3.8C379.3,34.7,378.8,33.1,378.5,32.7z"/>
			<path class="st7" d="M390.5,45.3c-3.2,0-5.4-3.7-5.4-8.1c0-4.7,2.5-8.1,5.9-8.1c1.3,0,2.9,0.2,4.2,2.7c0.8,1.6,1.1,3.4,1.1,5.2
				C396.3,42.5,393.5,45.3,390.5,45.3z M391.9,32.7c-0.3-0.4-0.6-0.5-1.1-0.5c-0.7,0-1.1,0.7-1.3,1.4c-0.3,1-0.4,3-0.4,3.9
				c0,1,0.1,2.2,0.3,2.9c0.3,1.4,0.8,1.6,1.5,1.6c0.5,0,1-0.2,1.4-1.3c0.4-1,0.5-2.7,0.5-3.8C392.8,34.7,392.3,33.1,391.9,32.7z"/>
		</g>
	</g>
	<g>
		<path class="st8" d="M16.4,19.7c-0.5,0-1.3,0-1.4,0c-0.6,0-0.8-0.1-0.8-0.7s0-2.3,0.1-2.5s0.2-0.2,1-0.2c1.3-0.1,6.8-0.1,7.4-0.1
			c1.9,0,3.6,0,4.9,0c0.4,0,0.5,0.1,0.5,0.6v2.3c0,0.2,0,0.4-0.4,0.5s-0.7,0.1-2.1,0.1h-2c-0.1,1.3-0.4,7.8-0.4,12
			c0,1,0,1.2-1.1,1.2c-0.4,0-2.1,0-2.5,0c-1.1,0-1.2-0.1-1.2-0.7c0,0,0.1-4.7,0.1-5.1c0.1-5.2,0.1-5.7,0.3-7.5L16.4,19.7z"/>
		<path class="st8" d="M32,24.4c0.4-0.8,0.9-1.7,2.2-2.2c0.7-0.3,1.4-0.3,1.7-0.3c0.5,0,0.5,0.3,0.5,1.3c0,0.1,0,0.7,0,1.5
			c0,0.2-0.1,0.3-0.3,0.3s-1.1,0.1-1.4,0.2c-1.8,0.3-2.2,1.6-2.3,2.6c0,0.6-0.1,1.5-0.1,3.3c0,0.2,0,1.2,0,1.4
			c0,0.4-0.3,0.4-1.1,0.4c-0.8,0-1.6,0-2.4,0s-1,0-1-0.7c0-0.6,0-3.2,0.1-3.8c0-3.7,0-5.3,0.1-5.8c0.1-0.2,0.1-0.4,1.6-0.4
			c0.4,0,2,0,2.2,0.1C32,22.4,32,22.8,32,23L32,24.4z"/>
		<path class="st8" d="M41,24.2c-1.3,0-2.4,0.3-2.7,0.3s-0.3-0.2-0.5-0.6c0-0.1-0.2-0.8-0.2-1.2c0-0.3,0.1-0.5,0.7-0.7
			c0.4-0.1,1.9-0.4,3.3-0.4c1.8,0,3.7,0.3,4.9,1.7c0.9,1,1.1,2.3,1.1,4.8c0,0.3,0,3.2-0.1,3.6c-0.1,0.5-0.4,0.6-0.8,0.6
			c-0.8,0-1.5,0-2.1,0c-1.8,0-4,0.7-5.2,0.7c-0.6,0-2-0.1-2.7-1.1c-0.4-0.5-0.5-1.2-0.5-1.7c0-1.7,1.4-4.3,6.8-4.1
			C43,24.9,42.6,24.2,41,24.2z M40.6,29.9c0,0.5,0.4,1,1.3,1c0.3,0,0.6,0,1.4-0.3c0-1.7,0-1.9,0-2.6C41.9,28.1,40.6,28.6,40.6,29.9z
			"/>
		<path class="st8" d="M54.6,26.8c0,0.7-0.1,3.9-0.1,4.6c0,0.9,0,1.2-0.3,1.3c-0.3,0.1-1.4,0.1-1.9,0.1c-2.2,0-2.3-0.1-2.3-0.7
			c0-1.9,0.2-8.9,0.2-9.3c0-0.5,0.1-0.5,1.3-0.5h2.7c0.4,0,0.5,0.3,0.5,1.2L54.6,26.8z M55.5,18.5c0,1.4-1.9,2.1-3.1,2.1
			c-1.4,0-2-0.8-2-1.5c0-1.3,1.7-2.1,3-2.1C54.7,16.9,55.5,17.5,55.5,18.5z"/>
		<path class="st8" d="M59.1,16.1h1c1,0,1.1,0,1.2,0.1c0.1,0.1,0.1,0.2,0.1,1.1c0,0.4,0,1.2-0.2,7.6c0,0.8-0.2,7.4-0.2,7.7
			c-0.1,0.2-0.2,0.2-0.7,0.2h-1.4c-0.3,0-1.9,0-2.1,0c-0.2,0-0.3-0.2-0.3-0.4c0-0.3,0-0.7,0.1-4.4c0-1.6,0.2-8.5,0.2-9.9
			s0-1.6,0.2-1.8c0.1-0.1,0.3-0.2,1-0.2L59.1,16.1z"/>
		<path class="st8" d="M80.7,16.7c0,0.3,0,0.9-0.1,1.7c-0.1,0.6-0.1,0.9-0.6,0.9c-0.3,0-0.7-0.1-1.7-0.1c-1.5,0-2.9,0.5-2.9,1.4
			c0,0.6,0.3,0.8,1.9,2.3c2.4,2.1,3.6,3.1,3.6,5.2c0,2.8-2.7,5.4-7.1,5.4c-1,0-2.2-0.1-3.4-0.2c-0.7-0.1-0.8-0.3-0.8-0.9
			c0-0.4,0.1-1.9,0.2-2.2C69.9,30,70,30,70.3,30c0.4,0,1.9,0.4,3.2,0.4c1.1,0,2.4-0.5,2.4-1.6c0-0.7-0.2-0.9-2.4-2.9
			c-2.5-2.3-3.1-3.2-3.1-4.7c0-2.1,1.7-4.9,7.3-4.9C80.2,16,80.7,16.1,80.7,16.7z"/>
		<path class="st8" d="M87.3,26.8c0,0.7-0.1,3.9-0.1,4.6c0,0.9,0,1.2-0.3,1.3c-0.3,0.1-1.4,0.1-1.9,0.1c-2.2,0-2.3-0.1-2.3-0.7
			c0-1.9,0.2-8.9,0.2-9.3c0-0.5,0.1-0.5,1.3-0.5h2.7c0.4,0,0.5,0.3,0.5,1.2L87.3,26.8z M88.2,18.5c0,1.4-1.9,2.1-3.1,2.1
			c-1.4,0-2-0.8-2-1.5c0-1.3,1.7-2.1,3-2.1C87.4,16.9,88.2,17.5,88.2,18.5z"/>
		<path class="st8" d="M101.3,22.9c0.2,0,0.3,0,0.3,0.4c0,0.7,0.1,1.3,0.1,1.5c0,0.3-0.1,0.5-0.3,0.6c-0.2,0-1.2,0-1.4,0
			c0,0.7,0.1,1.3-0.3,2.2c-0.4,1-1.7,2.8-4.6,2.8c-1.5,0-2.3-0.4-2.9-0.7c-0.1,0.1-0.1,0.2-0.1,0.4c0,0.7,1,0.9,3,1.4
			c0.6,0.1,3.3,0.7,3.9,0.8c1.2,0.3,2.7,0.9,2.7,2.8c0,2.6-3.1,4.2-6.9,4.2c-2.2,0-5.9-0.5-5.9-3.7c0-1.3,0.6-1.8,1.5-2.3
			c-0.4-0.4-1.1-0.9-1.1-1.9c0-1.5,1.3-2.2,1.8-2.5c-0.5-0.5-1.3-1.3-1.3-2.8c0-2.3,1.8-4.4,5.1-4.4c2.3,0,3.6,1,4.2,1.4
			C99,23.1,101.1,22.9,101.3,22.9z M91.5,34.8c0,1.1,1.8,2.2,4.1,2.2c1.2,0,2.7-0.3,2.7-1.1c0-0.4-0.3-0.4-1.5-0.6
			c-1.7-0.2-3.6-0.6-5.1-1.2C91.7,34.3,91.5,34.5,91.5,34.8z M93.6,26.2c0,1.3,1,1.3,1.3,1.3c0.8,0,1.7-0.5,1.7-1.7
			c0-1.3-1-1.3-1.3-1.3C94.3,24.6,93.6,25.3,93.6,26.2z"/>
		<path class="st8" d="M114.5,23.9c0.6,1.2,0.6,3.1,0.6,4.2c0,1.4-0.1,4.1-0.2,4.3c-0.2,0.4-0.5,0.4-2.2,0.4c-0.3,0-1.4,0-1.7,0
			c-0.4,0-0.6-0.1-0.6-0.7c0-0.5,0.1-1.3,0.1-1.8c0-1,0-2.3,0-3.3c0-1.5-0.4-2.7-1.6-2.7c-0.5,0-1,0.1-1.5,0.3c0,1.1,0,6.3,0,6.7
			c0,1.3,0,1.4-1.5,1.4c-0.7,0-1.3,0-2,0c-1,0-1.1-0.1-1.1-0.8c0-1.2,0.1-6.6,0.1-7.7c0-1.7,0.2-1.8,0.9-1.8c0.3,0,1.9,0.1,2.2,0.1
			c0.9,0,1.4-0.1,2.5-0.4c1.3-0.3,1.9-0.4,2.5-0.4C111.8,21.8,113.5,22,114.5,23.9z"/>
		<path class="st8" d="M124.7,22.8c0,0.5,0,0.8-0.1,1.2c-0.1,0.3-0.2,0.4-0.5,0.4c-0.4,0-0.7-0.1-1.4-0.1c-0.8,0-1.1,0.3-1.1,0.7
			c0,0.4,0.2,0.6,1.5,1.7c1.5,1.3,1.7,2.3,1.7,3c0,1.2-0.9,3.7-4.6,3.7c-1.1,0-2.3-0.2-2.8-0.3c-0.7-0.2-0.7-0.3-0.7-0.6
			s0.1-1.1,0.2-1.6c0.1-0.3,0.1-0.5,0.3-0.5c0.5,0,1.3,0.4,2.2,0.4c0.3,0,0.9,0,0.9-0.6c0-0.3-0.1-0.4-1.3-1.6
			c-1.7-1.6-1.7-2.7-1.7-3.3c0-2.1,1.8-3.7,5.5-3.7C124.7,21.7,124.7,21.8,124.7,22.8z"/>
		<path class="st8" d="M27.4,54.4c0,3.8-3,6-6.1,6c-3.4,0-5.9-2.5-5.9-5.6c0-2.9,2.2-5.7,6.6-5.7C24.7,49.2,27.4,50.7,27.4,54.4z
			 M18.6,54.9c0,2.1,1.2,3.2,2.8,3.2c2,0,3.2-1.7,3.2-3.6c0-1.2-0.5-3.2-2.7-3.2C19.2,51.3,18.6,53.6,18.6,54.9z"/>
		<path class="st8" d="M28.6,50.2c0-0.4,0.1-0.5,0.7-0.5c0.4,0,0.7,0,1.1,0c0.1-2.6,0.4-6.8,6.2-6.8c1.3,0,1.3,0.2,1.3,0.4
			c0,1.3-0.2,1.3-0.7,1.3c-1,0-2.4,0.2-3,1.1c-0.7,0.9-0.7,3.5-0.7,3.9c0.4,0,2-0.1,2.3-0.1s0.6,0,0.6,0.6c0,1.6-0.5,1.6-0.8,1.6
			h-2.1c-0.1,2-0.2,5.3-0.3,7.2c0,0.9,0,1-0.6,1c-0.3,0-1.8,0-2,0c-0.4,0-0.5-0.1-0.5-0.7c0-1.2,0.3-7,0.3-7.5c-1.5,0-1.7,0-1.7-0.5
			v-1H28.6z"/>
		<path class="st8" d="M44.3,56.3c0-1.5,0.1-3,0.2-4.5c-0.4,0-0.9,0-1.1,0c-0.3,0-0.3-0.1-0.3-0.7c0-0.6,0-1.1,0.2-1.2
			c0.2-0.1,1.1-0.2,1.4-0.2c0-0.5,0.1-3,0.1-3.5c0-0.3,0.3-0.4,1.9-0.8c0.7-0.1,0.9-0.2,1-0.2c0.2,0,0.3,0.1,0.3,0.4
			c0,0.6-0.2,3.3-0.2,3.9c0.8,0,2.5-0.2,3.1-0.2c0.4,0,0.5,0.1,0.5,0.6v1c0,0.3-0.1,0.4-1.1,0.4c-0.6,0-2.3,0.1-2.7,0.1
			c-0.1,1.4-0.2,2.8-0.2,4.1c0,1.4,0,2.8,2,2.8c0.9,0,1.7-0.4,1.9-0.4s0.5,0.9,0.5,1c0,0.4-1.9,1.4-3.7,1.4
			C44.3,60.5,44.3,57.3,44.3,56.3z"/>
		<path class="st8" d="M55.8,43.4c0.6,0,0.7,0.2,0.7,0.6c0,0-0.2,4.5-0.3,5.9c0.7-0.4,1.4-0.8,2.7-0.8c1.9,0,3.4,1,4,2.2
			c0.5,1.1,0.5,1.9,0.5,6v1.1c0,1.4,0,1.4-0.6,1.4h-1.6c-1.1,0-1.1,0-1.1-0.4c0-0.7,0.1-3.8,0.1-4.4c0-2.2,0-3.9-2.3-3.9
			c-0.7,0-1.2,0.2-1.9,0.5c-0.1,2.2-0.3,5.3-0.3,7.4c0,0.9,0,0.9-1,0.9c-0.2,0-1.6,0-1.8,0c-0.3,0-0.3-0.2-0.3-0.5
			c0-3,0.3-9.6,0.5-14.8c0-1.2,0.2-1.3,0.7-1.3L55.8,43.4z"/>
		<path class="st8" d="M71.9,58.4c1.1,0,2.1-0.4,3-1c0.1-0.1,0.9-0.6,1-0.6s0.1,0.1,0.2,0.3c0,0.1,0.1,0.7,0.1,0.8
			c0,0.2,0,0.4-0.6,0.9c-1.3,1-2.9,1.6-4.5,1.6c-2.3,0-5.7-1.4-5.7-5.3c0-3.8,3-5.9,6.2-5.9c3.4,0,4.8,2.3,4.8,4.7
			c0,0.1,0,0.8-0.1,1c0,0.1-0.6,0.1-0.9,0.1c-0.7,0-4.1-0.1-4.8-0.1c-0.6,0-1,0-1.9,0C68.6,57.5,70.5,58.4,71.9,58.4z M73.4,53.4
			c0-0.4,0-0.9-0.2-1.3c-0.3-0.7-0.9-1.2-1.8-1.2c-0.4,0-2.1,0.1-2.7,2.4C70.3,53.4,70.5,53.4,73.4,53.4z"/>
		<path class="st8" d="M83.7,45.8c-0.3,0-0.4-0.2-0.4-0.5c0-0.2,0-1.5,0.1-1.6c0.1-0.2,0.4-0.2,0.7-0.2c1.4-0.1,2.2-0.1,6-0.1h3.5
			c0.4,0,2.7,0,3,0.1c0.3,0,0.3,0.3,0.3,0.4v1.3c0,0.3-0.1,0.5-0.9,0.5h-4.2c-0.1,1.6-0.5,9.8-0.5,13.3c0,0.8-0.1,0.9-0.2,0.9
			c0,0.1-1,0.1-1.2,0.1s-1.4,0-1.6,0C88,59.8,88,59.6,88,59.3c0-0.7,0.1-3.8,0.1-4.5c0-1.3,0.2-8.5,0.3-9.2c-0.9,0-3.3,0.1-3.4,0.1
			L83.7,45.8z"/>
		<path class="st8" d="M99.6,59.1c0,0.7,0,0.8-0.3,0.9c-0.2,0-2,0.1-2.3,0.1c-0.5,0-0.6-0.2-0.6-0.8l0.2-8.7c0-0.8,0-0.9,0.3-1
			c0.2,0,1.2,0,1.8,0c0.7,0,0.7,0.1,0.7,0.6c0,0.2,0,1.3,0,1.6c0.2-0.5,0.6-1.4,1.8-2c1-0.5,2-0.5,2-0.5c0.3,0,0.3,0.1,0.3,0.4
			c0,0.1,0,1.5,0,1.6c0,0.2-0.1,0.2-0.7,0.2c-0.9,0.1-2.4,0.6-2.8,2c-0.3,0.9-0.3,2.7-0.3,4.8L99.6,59.1L99.6,59.1z"/>
		<path class="st8" d="M106.1,54.5c1.5-0.7,3-0.8,4.5-0.8c-0.1-2.4-1.6-2.6-2.8-2.6c-0.6,0-0.8,0-1.6,0.1c-0.2,0-0.4,0-0.5,0
			c-0.3,0-0.4-0.1-0.5-0.4c0-0.1-0.2-0.7-0.2-0.9c0-0.3,0.2-0.4,0.6-0.5s1.4-0.3,2.6-0.3c3.3,0,4.4,1.9,4.7,2.4
			c0.4,0.7,0.8,1.9,0.8,4.5c0,0.9-0.1,2.6-0.1,2.9c0,0.3-0.2,0.5-0.6,0.5c-0.2,0-1-0.1-1.2-0.1c-0.3,0-0.8,0.1-1.5,0.2
			c-1.7,0.4-2.4,0.6-3.6,0.6c-2.6,0-2.9-1.8-2.9-2.6C103.8,56.1,104.9,55.1,106.1,54.5z M108.4,58.4c0.3,0,1.1-0.1,2.3-0.7
			c0-0.2,0-1.3,0-1.6s0-1,0-1.2c-3.1,0.4-3.8,1.2-3.8,2.1C106.9,57.7,107.2,58.4,108.4,58.4z"/>
		<path class="st8" d="M125.7,50.3c0,0.3-0.1,0.7-0.2,1c-0.1,0.4-0.2,0.8-0.4,0.8c-0.2,0-1.4-0.8-2.7-0.8c-2.2,0-3.4,1.7-3.4,3.5
			c0,1.7,1.1,3.3,3.3,3.3c1.5,0,2.8-0.9,3-0.9s0.2,0.2,0.2,0.3c0,0.3-0.1,1.4-0.3,1.7c-0.3,0.4-2.1,1.1-3.7,1.1
			c-3.4,0-5.8-2.4-5.8-5.5s2.5-5.6,6.2-5.6C124,49.2,125.7,49.8,125.7,50.3z"/>
		<path class="st8" d="M133.3,58.4c1.1,0,2.1-0.4,3-1c0.1-0.1,0.9-0.6,1-0.6s0.1,0.1,0.2,0.3c0,0.1,0.1,0.7,0.1,0.8
			c0,0.2,0,0.4-0.6,0.9c-1.3,1-2.9,1.6-4.5,1.6c-2.3,0-5.6-1.4-5.6-5.3c0-3.8,3-5.9,6.2-5.9c3.4,0,4.8,2.3,4.8,4.7
			c0,0.1,0,0.8-0.1,1c0,0.1-0.6,0.1-0.9,0.1c-0.7,0-4.1-0.1-4.8-0.1c-0.6,0-1,0-1.9,0C130.1,57.5,131.9,58.4,133.3,58.4z
			 M134.9,53.4c0-0.4,0-0.9-0.2-1.3c-0.3-0.7-0.9-1.2-1.8-1.2c-0.4,0-2.1,0.1-2.7,2.4C131.8,53.4,131.9,53.4,134.9,53.4z"/>
	</g>
	<g>
		<path class="st9" d="M205.8,53.8c-14.5,10.1-34.5,10.5-48.2-0.2c-1.8-13.1,3.6-24.9,14.2-33.1c3.2-2.1,6.6-3.9,10.2-5.1
			c11.2,3.3,21.1,15.1,23.1,26.4C206,45.5,206,49.8,205.8,53.8"/>
		<path class="st8" d="M204.7,53.2c-14,9.5-33,9.8-46.1-0.2c-1.6-12.5,3.6-23.7,13.8-31.6c3.1-2,6.3-3.7,9.6-4.8
			c10.6,3.3,20.1,14.7,22,25.4C204.9,45.4,204.9,49.4,204.7,53.2"/>
		<path class="st10" d="M192.6,31.9c-2.3-0.8-4.6-3.8-7.6-0.5l-4.5-3.2l-9.3,3.2c2.8-3.6,6.6-6.2,10.8-8.1
			C186.1,25,189.5,28.3,192.6,31.9"/>
		<path class="st11" d="M201.5,52c-0.2,0.2-0.3,0.5-0.3,0.8s0.1,0.6,0.3,0.8s0.4,0.3,0.7,0.3s0.5-0.1,0.7-0.3s0.3-0.5,0.3-0.8
			s-0.1-0.6-0.3-0.8s-0.4-0.3-0.7-0.3S201.7,51.8,201.5,52 M203,53.7c-0.2,0.3-0.5,0.4-0.8,0.4s-0.6-0.1-0.8-0.4
			c-0.2-0.3-0.3-0.6-0.3-0.9c0-0.4,0.1-0.7,0.3-0.9c0.2-0.3,0.5-0.4,0.8-0.4s0.6,0.1,0.8,0.4c0.2,0.3,0.3,0.6,0.3,0.9
			C203.4,53.1,203.3,53.4,203,53.7 M202.4,52.3c-0.1,0-0.1-0.1-0.3-0.1H202v0.5h0.2c0.1,0,0.2,0,0.2,0c0.1,0,0.1-0.1,0.1-0.2
			S202.5,52.3,202.4,52.3 M202.2,52.1c0.2,0,0.3,0,0.4,0.1c0.1,0.1,0.2,0.2,0.2,0.4c0,0.1,0,0.2-0.1,0.3c0,0-0.1,0.1-0.2,0.1
			c0.1,0,0.2,0.1,0.2,0.1c0,0.1,0.1,0.2,0.1,0.2v0.1v0.1v0.1l0,0h-0.2l0,0l0,0l0,0v-0.1c0-0.2,0-0.3-0.1-0.3c0,0-0.1,0-0.3,0H202
			v0.6h-0.2v-1.4h0.4V52.1z"/>
		<path class="st11" d="M172,54.5l2.9,0.7l-0.2,1h-0.1c0-0.3,0-0.6-0.2-0.8c-0.1-0.1-0.3-0.2-0.5-0.2l-0.6,2.5c0,0.2,0,0.3,0,0.4
			c0.1,0.1,0.2,0.1,0.4,0.2v0.1L172,58v-0.1c0.2,0,0.3,0,0.4,0c0.1,0,0.1-0.2,0.2-0.3l0.6-2.5c-0.2-0.1-0.4-0.1-0.6,0
			c-0.3,0.1-0.4,0.3-0.5,0.6H172L172,54.5z"/>
		<path class="st11" d="M175.2,58.4c0.2,0,0.3,0,0.3-0.1c0.1,0,0.1-0.2,0.1-0.3l0.3-2.1c0-0.2,0-0.3-0.1-0.4c0,0-0.1-0.1-0.3-0.1
			v-0.1l1.6,0.2c0.3,0,0.6,0.1,0.8,0.2c0.4,0.2,0.5,0.5,0.5,0.8s-0.2,0.5-0.4,0.6s-0.3,0.1-0.5,0.2l0.8,1.5c0,0,0,0.1,0.1,0.1h0.1
			V59l-1-0.1l-0.8-1.6h-0.1l-0.1,1c0,0.2,0,0.3,0,0.4c0,0.1,0.2,0.1,0.3,0.1v0.1l-1.6-0.2L175.2,58.4z M177.3,57
			c0.2-0.1,0.2-0.3,0.3-0.6c0-0.2,0-0.3,0-0.5c-0.1-0.2-0.2-0.3-0.5-0.3c-0.1,0-0.2,0-0.3,0c0,0-0.1,0.1-0.1,0.2l-0.1,1.2
			C176.9,57.1,177.1,57.1,177.3,57"/>
		<path class="st11" d="M181.3,57.8l-0.5-1.1l0,0l-0.4,1.1H181.3z M179.4,58.9c0.1,0,0.2-0.1,0.3-0.2c0-0.1,0.1-0.2,0.2-0.4l1.1-2.7
			h0.1l1.1,2.6c0.1,0.3,0.2,0.5,0.3,0.6s0.1,0.1,0.3,0.1V59h-1.6v-0.1c0.2,0,0.3,0,0.3,0c0.1,0,0.1-0.1,0.1-0.2c0,0,0-0.1,0-0.2
			c0,0,0-0.1-0.1-0.2l-0.1-0.3h-1.1c-0.1,0.2-0.1,0.3-0.1,0.4c0,0.1-0.1,0.2-0.1,0.3s0,0.1,0.1,0.1s0.1,0,0.3,0V59h-1v-0.1H179.4z"
			/>
		<path class="st11" d="M183.7,58.8c0.1,0,0.2,0,0.3-0.1s0.1-0.2,0.1-0.3l-0.2-2.3c0-0.1-0.1-0.2-0.2-0.3c-0.1,0-0.2,0-0.3,0v-0.1
			l1.7-0.1v0.1c-0.1,0-0.3,0-0.3,0.1c-0.1,0.1-0.1,0.2-0.1,0.3l0.2,2.4c0,0.1,0.1,0.2,0.1,0.3c0.1,0,0.2,0.1,0.3,0v0.1l-1.7,0.1
			L183.7,58.8z"/>
		<path class="st11" d="M186.3,58.6c0.1,0,0.2-0.1,0.3-0.1c0.1-0.1,0.1-0.2,0.1-0.3l-0.4-2.3c0-0.1-0.1-0.2-0.2-0.3
			c-0.1,0-0.2,0-0.3,0v-0.1l1.7-0.3v0.1c-0.2,0-0.3,0.1-0.4,0.2c-0.1,0.1-0.1,0.2,0,0.4l0.4,2.3c0,0.1,0.1,0.2,0.1,0.2
			c0.1,0,0.2,0,0.3,0c0.3-0.1,0.5-0.2,0.7-0.3c0.2-0.2,0.3-0.4,0.4-0.8h0.1v1.1l-2.8,0.5L186.3,58.6z"/>
		<path class="st11" d="M163.1,48.2c0-0.2,0-0.3-0.1-0.4c-0.1-0.1-0.2-0.1-0.3-0.1l-2.3-0.2c-0.2,0.1-0.3,0.2-0.3,0.3l-0.1,0.1h-0.1
			l0.1-1l2.2-1.5l0,0l-1.4-0.1c-0.2,0-0.3,0-0.4,0.1c-0.1,0.1-0.1,0.2-0.2,0.4h-0.1l0.1-1h0.1c0,0.2,0,0.3,0.1,0.3
			c0,0.1,0.1,0.1,0.3,0.1l2.9,0.2v0.1l-2.7,2l0,0l1.9,0.1c0.1,0,0.3,0,0.3,0c0.1-0.1,0.2-0.2,0.2-0.4h0.1l-0.1,1.1L163.1,48.2z"/>
		<path class="st11" d="M162.9,42.3l-1.2,0.2l0,0l1,0.7L162.9,42.3z M163.5,44.3c0-0.1,0-0.2-0.1-0.3s-0.2-0.2-0.4-0.3l-2.4-1.7
			v-0.1l2.7-0.5c0.3-0.1,0.5-0.1,0.6-0.1s0.2-0.1,0.2-0.2h0.1l-0.4,1.5h-0.1c0-0.2,0-0.3,0-0.3c0-0.1-0.1-0.1-0.1-0.1s-0.1,0-0.2,0
			c0,0-0.1,0-0.2,0l-0.3,0.1l-0.2,1.1c0.2,0.1,0.3,0.2,0.3,0.2c0.1,0.1,0.2,0.1,0.3,0.1s0.1,0,0.2-0.1c0-0.1,0.1-0.1,0.1-0.2h0.1
			l-0.2,1L163.5,44.3z"/>
		<path class="st11" d="M161.3,39.6l1-2.8l0.9,0.3v0.1c-0.3-0.1-0.6,0-0.8,0.1c-0.1,0.1-0.2,0.3-0.3,0.5l2.4,0.9
			c0.2,0.1,0.3,0.1,0.4,0c0.1,0,0.1-0.2,0.2-0.3h0.1l-0.6,1.6h-0.1c0.1-0.2,0.1-0.3,0-0.4c0-0.1-0.1-0.1-0.3-0.2l-2.4-0.9
			c-0.1,0.2-0.1,0.4-0.1,0.6c0,0.3,0.2,0.5,0.5,0.6v0.1L161.3,39.6z"/>
		<path class="st11" d="M165.6,37.3c0.1-0.1,0.1-0.2,0.1-0.3s-0.1-0.2-0.2-0.3l-2.1-1c-0.1-0.1-0.2-0.1-0.3,0
			c-0.1,0-0.1,0.1-0.2,0.2l-0.1-0.1l0.7-1.5l0.1,0.1c-0.1,0.1-0.1,0.2-0.1,0.3s0.1,0.2,0.2,0.3l2.1,1c0.1,0.1,0.2,0.1,0.3,0
			s0.1-0.1,0.2-0.3l0.1,0.1l-0.7,1.5H165.6z"/>
		<path class="st11" d="M167.6,32.7c-0.2-0.2-0.4-0.4-0.7-0.6c-0.4-0.3-0.8-0.4-1.1-0.4s-0.5,0.1-0.7,0.3c-0.2,0.3-0.2,0.6,0.1,1
			c0.2,0.2,0.4,0.4,0.7,0.6c0.3,0.2,0.6,0.3,0.8,0.4c0.4,0.1,0.8,0,1-0.3C167.9,33.4,167.8,33,167.6,32.7 M166,31.1
			c0.5-0.1,0.9,0,1.3,0.3c0.4,0.3,0.7,0.6,0.8,1.1c0.1,0.4,0,0.9-0.3,1.3c-0.3,0.4-0.7,0.7-1.1,0.8c-0.4,0.1-0.9,0-1.2-0.3
			c-0.4-0.3-0.7-0.6-0.8-1.1s0-0.9,0.3-1.3C165.2,31.5,165.5,31.2,166,31.1"/>
		<path class="st11" d="M169,31.6c0.1-0.1,0.2-0.2,0.2-0.3c0-0.1-0.1-0.2-0.2-0.2l-1.7-1.5c-0.2,0-0.4,0-0.4,0s-0.1,0-0.1,0.1
			l-0.1-0.1l0.7-0.8l2.7,0.1l0,0l-1.1-1c-0.1-0.1-0.2-0.2-0.3-0.2s-0.2,0.1-0.3,0.2l-0.1-0.1L169,27l0.1,0.1
			c-0.1,0.1-0.1,0.2-0.1,0.3c0,0.1,0.1,0.1,0.2,0.2l2.2,1.9l-0.1,0.1l-3.4-0.1l0,0l1.4,1.3c0.1,0.1,0.2,0.2,0.3,0.2s0.2-0.1,0.4-0.2
			l0.1,0.1L169,31.6L169,31.6z"/>
		<path class="st11" d="M172.3,26.6l-1.1-0.5l0,0l0.4,1.1L172.3,26.6z M171.6,28.6c0.1-0.1,0.1-0.2,0.1-0.3c0-0.1-0.1-0.2-0.1-0.4
			l-1-2.7l0.1-0.1l2.5,1.1c0.3,0.1,0.5,0.2,0.6,0.2s0.2,0,0.3-0.1l0.1,0.1l-1.2,1.1l-0.1-0.1c0.1-0.1,0.2-0.2,0.2-0.2s0-0.1-0.1-0.2
			l-0.1-0.1c0,0-0.1,0-0.2-0.1l-0.3-0.1l-0.8,0.7c0.1,0.2,0.1,0.3,0.2,0.4c0.1,0.1,0.1,0.2,0.1,0.2c0,0.1,0.1,0.1,0.2,0
			c0.1,0,0.1-0.1,0.2-0.1l0.1,0.1L171.6,28.6L171.6,28.6z"/>
		<path class="st11" d="M174.5,25.9c0.1-0.1,0.2-0.1,0.2-0.2c0.1-0.1,0-0.2,0-0.3l-1.2-2c-0.1-0.1-0.2-0.2-0.3-0.2s-0.2,0-0.3,0.1
			l-0.1-0.1l1.4-0.9l0.1,0.1c-0.2,0.1-0.3,0.2-0.3,0.3c0,0.1,0,0.2,0.1,0.4l1.2,2c0.1,0.1,0.1,0.1,0.2,0.1c0.1,0,0.2,0,0.3-0.1
			c0.3-0.2,0.4-0.3,0.5-0.6c0.1-0.2,0.1-0.5,0-0.9l0.1-0.1l0.4,1l-2.4,1.5L174.5,25.9z"/>
		<path class="st11" d="M178.7,23.2c0.2,0,0.3-0.1,0.3-0.2s0.1-0.2,0-0.4l-0.5-2.1c0-0.2-0.1-0.3-0.2-0.3c-0.1,0-0.2,0-0.3,0v-0.1
			l1.5-0.3c0.3-0.1,0.6-0.1,0.8-0.1c0.4,0,0.7,0.2,0.7,0.6c0.1,0.3,0,0.5-0.1,0.7c-0.1,0.1-0.3,0.2-0.4,0.3l1.3,1.1l0.1,0.1h0.1v0.1
			l-1,0.2l-1.3-1.3h-0.1l0.2,0.9c0,0.2,0.1,0.3,0.2,0.3c0.1,0,0.2,0.1,0.4,0v0.1L178.7,23.2L178.7,23.2z M180.2,21.1
			c0.1-0.1,0.1-0.3,0.1-0.6c0-0.2-0.1-0.3-0.2-0.4c-0.1-0.2-0.3-0.2-0.5-0.2c-0.1,0-0.2,0.1-0.2,0.1s0,0.1,0,0.2l0.3,1.2
			C179.8,21.3,180.1,21.2,180.2,21.1"/>
		<path class="st11" d="M182.1,22.6v-0.1c0.1,0,0.2,0,0.3,0s0.2-0.1,0.2-0.2l0.6-2.3c0-0.1,0-0.2-0.1-0.3c0,0-0.1-0.1-0.3-0.1v-0.1
			l2.7,0.7l-0.2,1h-0.1c0-0.3,0-0.6-0.2-0.7c-0.1-0.1-0.4-0.3-0.7-0.4c-0.1,0-0.2,0-0.3,0c0,0-0.1,0.1-0.1,0.2l-0.3,1.1
			c0.3,0.1,0.5,0.1,0.6,0s0.2-0.2,0.4-0.5h0.1l-0.4,1.6h-0.1c0-0.3,0-0.5-0.1-0.6s-0.2-0.2-0.5-0.3l-0.3,1.1c0,0.1,0,0.2,0,0.2
			c0,0.1,0.1,0.1,0.3,0.1c0.3,0.1,0.6,0.1,0.8,0s0.4-0.3,0.7-0.5h0.1l-0.4,0.9L182.1,22.6z"/>
		<path class="st11" d="M189.2,22.3c0.1,0.2,0.2,0.3,0.2,0.3c0.1,0,0.1,0,0.2,0c0.1,0,0.1,0,0.1-0.1l0.1,0.1l-0.7,0.9l-0.1-0.1
			c0-0.3,0.1-0.5,0-0.7c0-0.3-0.2-0.6-0.4-0.8c-0.3-0.2-0.5-0.2-0.8-0.1c-0.3,0.2-0.5,0.4-0.8,0.8c-0.2,0.3-0.3,0.5-0.4,0.8
			c-0.1,0.4,0,0.8,0.3,1c0.2,0.1,0.4,0.2,0.7,0.2c0.1,0,0.3,0,0.6-0.1l0.1,0.2c-0.3,0.1-0.5,0.1-0.7,0.1c-0.3,0-0.6-0.1-0.8-0.3
			c-0.4-0.3-0.6-0.6-0.7-1c-0.1-0.5,0-0.9,0.3-1.4c0.3-0.4,0.7-0.7,1.2-0.8c0.4-0.1,0.9,0,1.2,0.3C188.9,22,189.1,22.1,189.2,22.3"
			/>
		<path class="st11" d="M188.6,25.8c0.1,0.1,0.2,0.2,0.3,0.2s0.2-0.1,0.3-0.2l1.5-1.6c0.1-0.1,0.2-0.3,0.2-0.3
			c0-0.1-0.1-0.2-0.2-0.3l0.1-0.1l1.1,1.1c0.2,0.2,0.4,0.4,0.5,0.6c0.2,0.4,0.2,0.7-0.1,0.9c-0.2,0.2-0.4,0.3-0.6,0.3
			c-0.2,0-0.4-0.1-0.5-0.2l-0.2,1.7V28c0,0,0,0.1,0.1,0.1l-0.1,0.1l-0.7-0.7l0.3-1.8l-0.1-0.1l-0.7,0.7c-0.1,0.1-0.2,0.2-0.2,0.3
			c0,0.1,0.1,0.2,0.2,0.3l-0.1,0.1L188.6,25.8L188.6,25.8z M191.2,25.9c0.2,0,0.3-0.1,0.6-0.3c0.1-0.1,0.2-0.3,0.2-0.4
			c0.1-0.2,0-0.4-0.2-0.5c-0.1-0.1-0.2-0.1-0.2-0.1c-0.1,0-0.1,0-0.2,0.1l-0.8,0.9C190.8,25.7,191,25.8,191.2,25.9"/>
		<path class="st11" d="M191.4,28.6L191.4,28.6c0.2,0,0.3,0.1,0.3,0.1c0.1,0,0.2,0,0.3-0.1l1.8-1.5c0.1-0.1,0.2-0.2,0.1-0.3
			c0-0.1-0.1-0.1-0.1-0.3l0.1-0.1l1.8,2.2l-0.8,0.6l-0.1-0.1c0.2-0.2,0.3-0.5,0.3-0.7s-0.1-0.4-0.4-0.7c-0.1-0.1-0.2-0.2-0.2-0.2
			s-0.1,0-0.2,0.1l-0.9,0.7c0.2,0.2,0.3,0.3,0.5,0.3c0.1,0,0.3-0.1,0.6-0.2l0.1,0.1l-1.3,1.1l-0.1-0.1c0.2-0.2,0.3-0.4,0.3-0.5
			c0-0.2-0.1-0.3-0.2-0.6l-0.9,0.8c-0.1,0.1-0.1,0.1-0.1,0.2s0.1,0.2,0.2,0.3c0.2,0.2,0.4,0.4,0.6,0.5c0.2,0.1,0.5,0.1,0.9,0
			l0.1,0.1l-0.9,0.5L191.4,28.6z"/>
		<path class="st11" d="M195.8,32.4l0.7-1l0,0l-1.2,0.2L195.8,32.4z M193.9,31.4c0.1,0.1,0.2,0.1,0.3,0.2c0.1,0,0.2,0,0.4-0.1
			l2.8-0.5l0.1,0.1l-1.6,2.3c-0.2,0.3-0.3,0.4-0.3,0.5s0,0.2,0,0.3l-0.1,0.1l-0.9-1.3l0.1-0.1c0.1,0.1,0.2,0.2,0.2,0.2s0.1,0,0.2,0
			l0.1-0.1l0.1-0.1l0.2-0.3l-0.6-0.9c-0.2,0-0.3,0.1-0.4,0.1c-0.1,0-0.2,0.1-0.3,0.1s-0.1,0.1-0.1,0.2s0.1,0.1,0.1,0.2l-0.1,0.1
			l-0.5-0.8L193.9,31.4z"/>
		<path class="st11" d="M198.7,33l1.4,2.6l-0.9,0.5l-0.1-0.1c0.3-0.2,0.4-0.4,0.4-0.7c0-0.1-0.1-0.3-0.2-0.5L197,36
			c-0.2,0.1-0.2,0.2-0.3,0.2c0,0.1,0,0.2,0.1,0.4l-0.1,0.1l-0.8-1.5l0.1-0.1c0.1,0.2,0.2,0.3,0.3,0.3s0.2,0,0.4-0.1l2.3-1.2
			c-0.1-0.2-0.2-0.3-0.4-0.4c-0.2-0.1-0.5-0.2-0.8,0l-0.1-0.1L198.7,33z"/>
		<path class="st11" d="M197.6,37.8c0.1,0.1,0.1,0.2,0.2,0.3c0.1,0.1,0.2,0.1,0.3,0l2.2-0.9c0.1-0.1,0.2-0.1,0.2-0.2
			c0-0.1,0-0.2-0.1-0.3h0.1l0.6,1.6H201c-0.1-0.1-0.1-0.2-0.2-0.3c-0.1-0.1-0.2-0.1-0.3,0l-2.2,0.9c-0.1,0.1-0.2,0.1-0.2,0.2
			c0,0.1,0,0.2,0.1,0.3l-0.1,0.1l-0.6-1.6L197.6,37.8z"/>
		<path class="st11" d="M199.7,42.3c0.2,0,0.6,0,0.9-0.1c0.5-0.1,0.9-0.3,1.1-0.5c0.2-0.2,0.3-0.4,0.2-0.7c-0.1-0.4-0.4-0.6-0.8-0.6
			c-0.2,0-0.5,0-0.9,0.1s-0.7,0.2-0.9,0.3c-0.4,0.2-0.5,0.5-0.4,0.9C199,42.1,199.2,42.3,199.7,42.3 M201.9,42.2
			c-0.2,0.4-0.6,0.7-1.1,0.8s-0.9,0.1-1.3-0.2c-0.4-0.2-0.6-0.6-0.8-1.1c-0.1-0.5-0.1-1,0.2-1.4c0.2-0.4,0.6-0.6,1-0.7
			c0.5-0.1,0.9-0.1,1.3,0.2c0.4,0.2,0.7,0.6,0.8,1.1C202.2,41.4,202.2,41.8,201.9,42.2"/>
		<path class="st11" d="M199.5,44.1c0,0.2,0.1,0.3,0.1,0.3c0.1,0,0.2,0.1,0.3,0l2.3-0.2c0.1-0.2,0.2-0.3,0.3-0.3v-0.1h0.1l0.1,1
			l-1.9,1.9l0,0l1.4-0.2c0.2,0,0.3-0.1,0.3-0.1c0.1-0.1,0.1-0.2,0.1-0.4h0.1l0.1,1h-0.1c0-0.1-0.1-0.2-0.1-0.3c0,0-0.1-0.1-0.3,0
			l-2.9,0.3v-0.1l2.4-2.4l0,0l-1.9,0.2c-0.1,0-0.2,0.1-0.3,0.1c-0.1,0.1-0.1,0.2-0.1,0.4h-0.1l-0.1-1.1L199.5,44.1z"/>
		<path class="st12" d="M169.2,33.4L169.2,33.4c0.7,0,1.3,0.1,1.9,0.2c3.8,0.6,7.3,1.9,10.7,3.4c0,0-1.9,0.6-2.5,0.8
			c-2,1-3.9,2.8-2.6,4.3c6.5,7.7,1.4,10.7-2.2,11.5c-3.3-0.7-6.6-1.9-9.5-3.6l-0.5-0.3v-0.6C164.5,43.4,166,38.1,169.2,33.4"/>
		<path class="st10" d="M193.7,33.5c2.1,3.1,3.7,6.6,4.2,9.9c0.4,1.6,0.6,3.6,0.6,5.7v0.7L198,50c-4.6,2.5-10.5,3.9-15.6,4.2
			c1.4-2.1,4-2.1,3.4-7.2c-0.4-3.1-8.3-5.3-2.1-8.9C183.7,38.2,190.5,34.5,193.7,33.5"/>
		<path class="st1" d="M170.7,39.1h-2.8v7.2c0,0.8,0.1,1.4,0.2,1.9c0.2,0.5,0.4,0.9,0.7,1.2s0.7,0.5,1.2,0.6s1,0.2,1.6,0.2
			s1.1-0.1,1.6-0.2c0.5-0.1,0.8-0.3,1.1-0.6s0.6-0.7,0.7-1.2c0.2-0.5,0.2-1.1,0.2-1.9v-7.2h-2.8V47c0,0.5-0.1,0.9-0.2,1.1
			c-0.2,0.2-0.4,0.3-0.6,0.3c-0.3,0-0.5-0.1-0.6-0.3c-0.2-0.2-0.2-0.5-0.2-1.1L170.7,39.1L170.7,39.1z"/>
		<path class="st1" d="M191.3,41.1l-0.8,4.6h1.6L191.3,41.1L191.3,41.1z M193.2,38.8l2.7,10.9h-3l-0.3-1.9h-2.3l-0.3,1.9h-3
			l2.6-10.9C189.6,38.8,193.2,38.8,193.2,38.8z"/>
	</g>
</g>
</svg>
